HIERARCHY
ROOT Hips
{
	OFFSET 0.00000 0.00000 0.00000
	CHANNELS 6 Xposition Yposition Zposition Zrotation Yrotation Xrotation 
	JOINT LHipJoint
	{
		OFFSET 0 0 0
		CHANNELS 3 Zrotation Yrotation Xrotation
		JOINT LeftHip
		{
			OFFSET 1.53139 -1.83434 0.76626
			CHANNELS 3 Zrotation Yrotation Xrotation
			JOINT LeftKnee
			{
				OFFSET 2.56112 -7.03663 0.00000
				CHANNELS 3 Zrotation Yrotation Xrotation
				JOINT LeftAnkle
				{
					OFFSET 2.59983 -7.14299 0.00000
					CHANNELS 3 Zrotation Yrotation Xrotation
					JOINT LeftToe
					{
						OFFSET 0.13742 -0.37757 2.00054
						CHANNELS 3 Zrotation Yrotation Xrotation
						End Site
						{
							OFFSET 0.00000 -0.00000 1.02897
						}
					}
				}
			}
		}
	}
	JOINT RHipJoint
	{
		OFFSET 0 0 0
		CHANNELS 3 Zrotation Yrotation Xrotation
		JOINT RightHip
		{
			OFFSET -1.40122 -1.83435 0.76627
			CHANNELS 3 Zrotation Yrotation Xrotation
			JOINT RightKnee
			{
				OFFSET -2.54052 -6.98003 0.00000
				CHANNELS 3 Zrotation Yrotation Xrotation
				JOINT RightAnkle
				{
					OFFSET -2.63179 -7.23079 0.00000
					CHANNELS 3 Zrotation Yrotation Xrotation
					JOINT RightToe
					{
						OFFSET -0.24131 -0.66299 2.03908
						CHANNELS 3 Zrotation Yrotation Xrotation
						End Site
						{
							OFFSET -0.00000 -0.00000 1.07391
						}
					}
				}
			}
		}
	}
	JOINT lowerback
	{
		OFFSET 0 0 0
		CHANNELS 3 Zrotation Yrotation Xrotation
		JOINT Chest
		{
			OFFSET 0.01174 2.10302 -0.29778
			CHANNELS 3 Zrotation Yrotation Xrotation
			JOINT Chest2
			{
				OFFSET 0.00772 2.13227 -0.01247
				CHANNELS 3 Zrotation Yrotation Xrotation
				JOINT lowerneck
				{
					OFFSET 0 0 0
					CHANNELS 3 Zrotation Yrotation Xrotation
					JOINT Neck
					{
						OFFSET -0.09219 1.60848 0.31481
						CHANNELS 3 Zrotation Yrotation Xrotation
						JOINT Head
						{
							OFFSET 0.13974 1.65456 -0.31134
							CHANNELS 3 Zrotation Yrotation Xrotation
							End Site
							{
								OFFSET 0.04742 1.69515 -0.14578
							}
						}
					}
				}
				JOINT LeftCollar
				{
					OFFSET 0 0 0
					CHANNELS 3 Zrotation Yrotation Xrotation
					JOINT LeftShoulder
					{
						OFFSET 3.24909 1.02882 -0.23993
CHANNELS 3 Zrotation Xrotation Yrotation
						JOINT LeftElbow
						{
OFFSET 0 -5.329550 -0.000000
CHANNELS 3 Zrotation Xrotation Yrotation
							JOINT LeftWrist
							{
OFFSET 0 -3.692320 -0.000000
CHANNELS 3 Zrotation Xrotation Yrotation
								JOINT lhand
								{
									OFFSET 0 0 0
CHANNELS 3 Zrotation Xrotation Yrotation
									JOINT LFingers
									{
OFFSET 0 -0.536600 -0.000000
CHANNELS 3 Zrotation Xrotation Yrotation
										End Site
										{
OFFSET 0 -0.432620 -0.000000
										}
									}
								}
								JOINT LThumb
								{
OFFSET 0 0.000000 0.000000
CHANNELS 3 Zrotation Xrotation Yrotation
									End Site
									{
OFFSET 0 -0.439220 0.439220
									}
								}
							}
						}
					}
				}
				JOINT RightCollar
				{
					OFFSET 0 0 0
					CHANNELS 3 Zrotation Yrotation Xrotation
					JOINT RightShoulder
					{
						OFFSET -3.21387 0.93002 -0.34594
CHANNELS 3 Zrotation Xrotation Yrotation
						JOINT RightElbow
						{
OFFSET 0 -5.234310 0.000000
CHANNELS 3 Zrotation Xrotation Yrotation
							JOINT RightWrist
							{
OFFSET 0 -3.553010 -0.000000
CHANNELS 3 Zrotation Xrotation Yrotation
								JOINT rhand
								{
									OFFSET 0 0 0
CHANNELS 3 Zrotation Xrotation Yrotation
									JOINT RFingers
									{
OFFSET 0 -0.772520 -0.000000
CHANNELS 3 Zrotation Xrotation Yrotation
										End Site
										{
OFFSET 0 -0.622830 -0.000000
										}
									}
								}
								JOINT RThumb
								{
OFFSET 0 0.000000 0.000000
CHANNELS 3 Zrotation Xrotation Yrotation
									End Site
									{
OFFSET 0 -0.632340 0.632340
									}
								}
							}
						}
					}
				}
			}
		}
	}
}
MOTION
Frames: 11
Frame Time: 0.008333333333333333
-10.868500 17.816600 15.192000 21.436100 -88.760700 -20.971900 0.000000 0.000000 0.000000 -22.413900 -6.894900 -6.845400 1.675500 8.154600 23.184800 0.315500 -6.670100 -10.354100 0.002300 -0.312300 -0.858100 0.000000 0.000000 0.000000 21.657700 3.939300 -11.773900 -2.962800 -10.634500 31.056900 -0.863200 2.453100 -16.898400 -0.254900 -3.248300 8.970800 0.100100 1.284400 9.119400 1.390400 1.792300 -0.686400 1.144700 0.896400 -5.880100 -6.557400 2.436600 -24.579200 3.702500 4.682000 31.251900 3.516700 1.589700 14.665300 -0.000000 -0.000000 0.000000 -1.541600 1.787700 -35.228400 15.222100 -24.454600 3.317400 16.879600 15.148000 -23.922600 0.000000 0.000000 0.000000 -7.125000 0.000000 0.000000 -13.130500 54.369800 3.063200 -0.000000 -0.000000 0.000000 -0.867400 2.896500 15.281800 -17.862800 -27.981100 -4.484700 -15.101200 4.386700 -8.362400 0.000000 0.000000 0.000000 7.125000 0.000000 -0.000000 8.499900 21.360400 4.872900
-10.877063 17.820832 15.185212 25.219724 -87.979742 -24.906213 0.000000 0.000000 0.000000 -22.900651 -7.345429 -6.483817 1.651358 8.098752 23.014376 0.289387 -6.911220 -10.042085 0.000860 0.148548 0.408138 0.000000 0.000000 0.000000 21.252525 3.938809 -11.555982 -2.981714 -10.665413 31.159587 -0.901803 1.824335 -17.423150 -0.224522 -3.050039 8.417999 -0.156339 1.344934 9.041511 1.134680 1.830425 -0.605136 1.018911 0.919640 -5.750594 -6.789609 2.204483 -24.449682 3.813070 4.393755 31.041220 3.536497 1.467710 14.553768 0.000000 0.000000 0.000000 -0.972115 0.626943 -33.936603 14.841449 -23.924778 3.161377 20.296108 17.403713 -25.394887 0.000000 0.000000 0.000000 -7.125000 0.000000 0.000000 -10.302060 56.528570 2.933780 0.000000 0.000000 0.000000 -0.786868 2.945873 14.396656 -17.268016 -27.209666 -4.209140 -14.739283 4.604370 -8.071292 0.000000 0.000000 0.000000 7.125000 0.000000 0.000000 8.770854 21.673661 4.968585
-10.887854 17.817948 15.183754 26.686801 -87.546140 -26.341866 0.000000 0.000000 0.000000 -23.189341 -7.594273 -6.222399 1.612223 8.006802 22.734706 0.280112 -6.891653 -9.903905 0.000244 0.099565 0.273621 0.000000 0.000000 0.000000 21.021644 3.742938 -11.686878 -3.023721 -10.733354 31.385746 -0.914244 1.649884 -17.588822 -0.232133 -3.101081 8.560366 -0.264721 1.415920 8.851499 0.940118 1.903689 -0.614835 0.870806 0.956912 -5.651403 -6.774995 2.106446 -24.196592 3.755168 4.244443 30.809951 3.466290 1.409292 14.409889 0.000000 0.000000 0.000000 -0.400911 -0.340439 -31.890918 14.649148 -23.655112 3.083768 19.561735 17.078279 -25.100255 0.000000 0.000000 0.000000 -7.125000 0.000000 0.000000 -10.932436 56.078323 2.996268 0.000000 0.000000 0.000000 -0.536631 3.055367 12.931510 -16.374387 -26.025594 -3.808769 -14.702766 6.427069 -7.999858 0.000000 0.000000 0.000000 7.125000 0.000000 0.000000 8.799732 21.748290 4.970571
-10.909748 17.810805 15.171054 19.157744 -87.328809 -18.990686 0.000000 0.000000 0.000000 -22.934101 -7.489887 -6.132533 1.639721 8.071431 22.931337 0.287276 -7.120738 -10.068180 0.002615 -0.314477 -0.864146 0.000000 0.000000 0.000000 21.379050 3.456277 -11.379860 -2.996638 -10.689615 31.240148 -0.912193 1.426314 -17.624834 -0.248971 -3.210700 8.865938 -0.059348 1.425314 8.784547 0.940997 1.937410 -0.595183 0.753599 0.967232 -5.586597 -7.179387 1.993907 -24.045807 4.270524 4.045578 30.978516 3.712472 1.344139 14.437758 0.000000 0.000000 0.000000 0.058790 -0.754276 -30.905561 14.676431 -23.693454 3.094750 20.152023 16.305141 -25.034481 0.000000 0.000000 0.000000 -7.125000 0.000000 0.000000 -10.284284 56.133798 2.829444 0.000000 0.000000 0.000000 -0.632234 3.398118 12.611815 -15.665682 -25.065208 -3.503128 -15.231155 6.520991 -7.479556 0.000000 0.000000 0.000000 7.125000 0.000000 0.000000 8.435659 22.258146 4.661334
-10.934469 17.808142 15.136166 15.403084 -87.050872 -15.409268 0.000000 0.000000 0.000000 -22.779513 -7.541869 -5.924719 1.647454 8.089623 22.986676 0.292100 -7.228103 -10.166309 0.007658 -0.566537 -1.556827 0.000000 0.000000 0.000000 21.710137 3.795524 -10.874145 -2.978643 -10.660443 31.143040 -0.912085 0.605683 -17.858061 -0.270305 -3.344006 9.238172 -0.413129 1.379896 8.691843 1.027131 1.844238 -0.585370 1.057016 0.933281 -5.536759 -7.430642 1.887592 -23.874366 4.779554 3.780724 31.313915 3.926486 1.257450 14.547058 0.000000 0.000000 0.000000 0.188195 -0.737541 -29.812610 14.719867 -23.754333 3.112166 19.703311 16.758291 -25.009215 0.000000 0.000000 0.000000 -7.125000 0.000000 0.000000 -10.741681 56.015661 2.926649 0.000000 0.000000 0.000000 -0.431565 3.857375 12.395562 -15.365920 -24.653450 -3.377123 -14.913506 6.575073 -7.750786 0.000000 0.000000 0.000000 7.125000 0.000000 0.000000 8.656372 21.993733 4.838726
-10.939661 17.825854 15.127023 12.885537 -86.693852 -12.870057 0.000000 0.000000 0.000000 -22.617771 -7.219515 -5.962151 1.611668 8.005487 22.730704 0.237311 -7.943211 -9.615020 0.000081 -0.038100 -0.104625 0.000000 0.000000 0.000000 21.737428 4.115014 -10.613541 -2.992237 -10.682462 31.216413 -0.953655 0.859352 -18.189478 -0.483285 -4.455258 12.361559 -0.337255 1.258194 8.593539 0.991219 1.688725 -0.619920 0.999491 0.854202 -5.510368 -7.219914 1.894150 -23.381368 4.693866 3.661123 31.634821 3.831714 1.197077 14.600363 0.000000 0.000000 0.000000 0.350870 -0.412863 -30.280761 14.857486 -23.947225 3.167898 19.514105 15.872675 -24.921907 0.000000 0.000000 0.000000 -7.125000 0.000000 0.000000 -10.898100 55.888764 2.936408 0.000000 0.000000 0.000000 -0.038827 3.943492 11.046736 -15.333771 -24.609107 -3.363716 -13.786241 7.946560 -8.179874 0.000000 0.000000 0.000000 7.125000 0.000000 0.000000 9.454178 21.603340 5.381318
-10.933204 17.816087 15.119254 16.103078 -86.880658 -16.079190 0.000000 0.000000 0.000000 -22.701478 -7.412398 -5.869641 1.613098 8.008785 22.740843 0.241023 -7.792729 -9.615802 0.000367 0.115948 0.318657 0.000000 0.000000 0.000000 21.685854 3.968413 -10.912221 -3.002146 -10.698525 31.269853 -0.910506 0.511142 -17.872064 -0.356344 -3.833650 10.609268 -0.593430 1.281012 8.604074 1.006800 1.694287 -0.655757 1.158462 0.865249 -5.562194 -7.707391 1.679809 -22.479307 5.256396 3.206002 32.089490 4.058402 0.990763 14.616684 0.000000 0.000000 0.000000 0.008213 0.096698 -30.065057 14.884398 -23.984836 3.178826 19.733599 16.247821 -25.065458 0.000000 0.000000 0.000000 -7.125000 0.000000 0.000000 -10.736486 56.078694 2.941742 0.000000 0.000000 0.000000 -0.112962 4.257937 11.983866 -15.603162 -24.979663 -3.476693 -14.642739 7.008291 -7.814123 0.000000 0.000000 0.000000 7.125000 0.000000 0.000000 8.850094 21.940250 4.960533
-10.900785 17.815666 15.109824 23.965032 -86.980269 -23.934556 0.000000 0.000000 0.000000 -22.806789 -6.125662 -6.246360 1.556569 7.873835 22.331619 0.176476 -9.142643 -9.236765 0.000478 0.118009 0.324302 0.000000 0.000000 0.000000 21.313835 4.386963 -11.216665 -3.110388 -10.871615 31.848248 -0.914024 0.473543 -17.919211 -0.354026 -3.820392 10.572224 -0.870738 1.303665 8.768445 0.768671 1.683197 -0.711977 1.063371 0.865687 -5.714770 -7.804763 1.288307 -21.326341 5.389691 2.359767 33.679085 4.016600 0.527764 15.162092 0.000000 0.000000 0.000000 -0.053538 0.633912 -29.847198 14.885520 -23.986369 3.179281 19.251089 16.455246 -25.105103 0.000000 0.000000 0.000000 -7.125000 0.000000 0.000000 -11.258340 56.019360 3.070939 0.000000 0.000000 0.000000 0.063692 4.173807 12.787328 -15.789629 -25.234555 -3.555843 -15.621169 6.045453 -7.494403 0.000000 0.000000 0.000000 7.125000 0.000000 0.000000 8.151453 22.227039 4.507214
-10.838309 17.804407 15.063531 19.903794 -87.097260 -20.030176 0.000000 0.000000 0.000000 -22.203941 -4.992503 -6.902333 1.585379 7.943050 22.541189 0.113038 -10.502710 -9.040828 0.004477 -0.431111 -1.184492 0.000000 0.000000 0.000000 21.706044 4.240801 -11.571811 -3.166451 -10.959819 32.144363 -0.880823 0.428709 -17.600326 -0.334578 -3.717360 10.282947 -0.916439 1.206133 9.003585 0.833744 1.546789 -0.483982 1.173678 0.797948 -5.607732 -8.724791 0.534346 -19.589119 5.639566 1.008170 36.282799 4.108443 -0.325767 16.145872 0.000000 0.000000 0.000000 -0.169181 0.465837 -29.572770 14.809168 -23.879553 3.148292 19.226124 16.100930 -24.841657 0.000000 0.000000 0.000000 -7.125000 0.000000 0.000000 -11.159758 55.749254 2.970116 0.000000 0.000000 0.000000 0.020804 3.656413 13.835542 -16.107009 -25.665507 -3.692205 -14.693471 6.031889 -7.296936 0.000000 0.000000 0.000000 7.125000 0.000000 0.000000 8.833824 22.465896 4.844014
-10.738772 17.810636 14.995763 21.235463 -86.873468 -21.387588 0.000000 0.000000 0.000000 -22.057891 -5.594323 -6.960412 1.568838 7.903522 22.421414 0.078847 -10.562085 -8.592882 0.001335 -0.235870 -0.648085 0.000000 0.000000 0.000000 21.708074 4.142628 -12.161537 -3.226609 -11.053073 32.459169 -0.863774 0.508533 -17.402607 -0.385440 -3.986832 11.039589 -1.256611 1.105602 9.128083 0.665522 1.359568 0.020008 1.218257 0.704969 -5.147737 -9.984396 -0.461626 -17.522940 5.985576 -0.913935 39.347181 4.221105 -1.519229 17.491585 0.000000 0.000000 0.000000 0.122153 0.037228 -29.651493 15.303027 -24.566456 3.350895 18.881181 15.496001 -25.176405 0.000000 0.000000 0.000000 -7.125000 0.000000 0.000000 -11.677868 56.015061 3.186880 0.000000 0.000000 0.000000 0.125935 2.739332 15.130109 -16.636806 -26.376479 -3.924682 -14.276016 5.537511 -8.394266 0.000000 0.000000 0.000000 7.125000 0.000000 0.000000 9.093077 21.364848 5.220354
-10.598884 17.806017 14.907518 18.702661 -86.695279 -18.888442 0.000000 0.000000 0.000000 -21.663696 -6.394003 -7.359161 1.604530 7.988638 22.679591 0.077876 -10.161332 -8.339374 0.003225 -0.363031 -0.997440 0.000000 0.000000 0.000000 22.036793 4.165484 -12.735831 -3.239246 -11.072638 32.525145 -0.816174 0.287795 -16.981431 -0.417066 -4.145447 11.486157 -1.143979 1.104148 9.578777 0.493999 1.342549 0.750279 0.978473 0.679292 -4.629755 -10.819050 -1.154100 -15.140535 5.405495 -2.229298 41.405393 3.888548 -2.475851 18.248540 0.000000 0.000000 0.000000 0.600961 -0.370546 -29.507405 16.410297 -26.073697 3.824591 18.448465 14.571908 -24.784065 0.000000 0.000000 0.000000 -7.125000 0.000000 0.000000 -11.936686 55.534657 3.118577 0.000000 0.000000 0.000000 0.336354 1.773417 16.828700 -17.494592 -27.505118 -4.313286 -14.656261 4.744985 -8.198057 0.000000 0.000000 0.000000 7.125000 0.000000 0.000000 8.826220 21.548102 5.026319
